<?xml version="1.0" encoding="UTF-8"?>
<svg version="1.1" xmlns="http://www.w3.org/2000/svg" width="1024" height="1024">
<path d="M0 0 C337.92 0 675.84 0 1024 0 C1024 337.92 1024 675.84 1024 1024 C686.08 1024 348.16 1024 0 1024 C0 686.08 0 348.16 0 0 Z " fill="#FCFCFB" transform="translate(0,0)"/>
<path d="M0 0 C0.76028503 -0.00694553 1.52057007 -0.01389106 2.30389404 -0.02104706 C4.84742707 -0.03932028 7.39002772 -0.02905232 9.93359375 -0.01878357 C11.75871478 -0.02584185 13.58382996 -0.03458649 15.40893555 -0.04489136 C20.36345845 -0.06740398 25.3176622 -0.06444143 30.2722168 -0.05556989 C34.4076047 -0.05046239 38.5429325 -0.05775054 42.67831421 -0.06504196 C52.43273159 -0.08204655 62.18699255 -0.07846901 71.94140625 -0.06175232 C82.00775913 -0.04482426 92.07367858 -0.06067374 102.13998413 -0.0929752 C110.78131319 -0.11965455 119.42250718 -0.12695175 128.06387329 -0.11846012 C133.22562276 -0.11352682 138.38711132 -0.11576851 143.54882812 -0.13624763 C148.40155612 -0.15457911 153.2536595 -0.14867712 158.10635376 -0.12404823 C159.88774299 -0.11903256 161.66917961 -0.12254969 163.45053101 -0.13519669 C165.88180435 -0.15109314 168.31101216 -0.13621122 170.7421875 -0.11352539 C171.44792908 -0.12536112 172.15367065 -0.13719685 172.88079834 -0.14939123 C176.6786153 -0.07734202 178.28965229 0.45044172 181.30883789 2.83126926 C183.53269178 5.72493404 184.1076948 7.51181212 183.84765625 11.15919495 C180.62653327 27.07999129 169.08402656 41.42652095 156.234375 50.8037262 C148.9868605 55.4722096 141.52309655 58.76378209 133.37109375 61.5146637 C131.66953125 62.1334137 131.66953125 62.1334137 129.93359375 62.7646637 C124.176631 63.97665585 118.23930063 64.09550606 112.37109375 64.5146637 C112.37109375 92.5646637 112.37109375 120.6146637 112.37109375 149.5146637 C107.20768552 149.5146637 106.68115718 149.46108964 102.95703125 146.5068512 C102.12252441 145.85635803 101.28801758 145.20586487 100.42822266 144.53565979 C99.54312012 143.82748108 98.65801758 143.11930237 97.74609375 142.3896637 C95.86705769 140.91941425 93.98682273 139.45069593 92.10546875 137.9834137 C91.15349609 137.23704651 90.20152344 136.49067932 89.22070312 135.72169495 C84.12191565 131.77266832 78.89924315 127.99320909 73.67724609 124.20948792 C72.94973145 123.6785553 72.2222168 123.14762268 71.47265625 122.6006012 C70.53413818 121.92070129 70.53413818 121.92070129 69.57666016 121.22706604 C68.84882324 120.66197327 68.12098633 120.09688049 67.37109375 119.5146637 C66.78317551 119.13649506 66.19525726 118.75832642 65.58952332 118.36869812 C62.660255 116.28028123 60.70147289 114.71122697 59.72259521 111.16593933 C59.46544445 108.30578841 59.42769849 105.51887751 59.46875 102.6474762 C59.45645859 101.61275177 59.44416718 100.57802734 59.4315033 99.51194763 C59.39981464 96.22046144 59.41603943 92.93121918 59.43359375 89.6396637 C59.42048253 87.40266374 59.40424159 85.16567979 59.38476562 82.9287262 C59.34394681 77.45703801 59.34241606 71.98640536 59.37109375 66.5146637 C56.63869707 65.14846536 54.49843712 65.40992433 51.44018555 65.43287659 C49.57265877 65.44267296 49.57265877 65.44267296 47.66740417 65.45266724 C47.00004934 65.45840822 46.33269451 65.46414921 45.64511681 65.47006416 C43.55586923 65.48744007 41.46669803 65.49774965 39.37739563 65.50598145 C33.43650068 65.53044331 27.49570819 65.56591799 21.55493164 65.61061096 C17.92165114 65.63744808 14.28843056 65.65445691 10.65506935 65.66547966 C9.27200932 65.67167615 7.88896077 65.68166483 6.50595665 65.69555855 C4.567436 65.71485214 2.62879517 65.72062396 0.69018555 65.72584534 C-0.41186722 65.73330276 -1.51391998 65.74076019 -2.64936829 65.7484436 C-6.85562894 65.41841283 -9.63408184 64.50948811 -12.62890625 61.5146637 C-12.90306091 59.13713074 -12.90306091 59.13713074 -12.93530273 56.1186676 C-12.95928383 54.42648605 -12.95928383 54.42648605 -12.98374939 52.70011902 C-12.98911209 51.47618439 -12.99447479 50.25224976 -13 48.9912262 C-13.00902847 47.73836823 -13.01805695 46.48551025 -13.02735901 45.19468689 C-13.0418911 42.53980648 -13.05155072 39.88535726 -13.05444336 37.23048401 C-13.05982512 33.83154623 -13.0974886 30.43379822 -13.14318752 27.0351963 C-13.18012126 23.79144332 -13.1814727 20.54766126 -13.1875 17.3037262 C-13.20703232 16.08384003 -13.22656464 14.86395386 -13.24668884 13.60710144 C-13.24061111 12.47267609 -13.23453339 11.33825073 -13.22827148 10.16944885 C-13.23334213 9.17176483 -13.23841278 8.17408081 -13.24363708 7.14616394 C-11.69704543 0.5256138 -5.88223051 -0.06868533 0 0 Z " fill="#118E85" transform="translate(115.62890625,377.48533630371094)"/>
<path d="M0 0 C9.78682117 7.74273827 14.83533577 17.8827583 17 30 C17.99949051 40.32153594 18.16253458 50.6528431 18.16796875 61.015625 C18.17119322 62.48915639 18.17455812 63.96268749 18.17805481 65.43621826 C18.1839736 68.48824814 18.18590161 71.54024996 18.18530273 74.59228516 C18.18519992 78.50281068 18.19900534 82.41315947 18.21607494 86.32364273 C18.2271669 89.35018753 18.22922304 92.3766886 18.22869301 95.40325165 C18.22987144 96.84656143 18.23428557 98.28987241 18.24202538 99.73316193 C18.25179526 101.73777427 18.24769077 103.74243984 18.24291992 105.74707031 C18.24434494 106.88541321 18.24576996 108.0237561 18.24723816 109.19659424 C18 112 18 112 16 115 C13.49389648 115.35644531 13.49389648 115.35644531 10.37109375 115.328125 C9.25412109 115.32296875 8.13714844 115.3178125 6.98632812 115.3125 C5.81521484 115.291875 4.64410156 115.27125 3.4375 115.25 C1.6750293 115.24226562 1.6750293 115.24226562 -0.12304688 115.234375 C-8.84625547 115.15374453 -8.84625547 115.15374453 -10 114 C-10.23192865 112.48530552 -10.41215238 110.96245438 -10.5625 109.4375 C-10.64628906 108.61121094 -10.73007812 107.78492188 -10.81640625 106.93359375 C-10.87699219 106.29550781 -10.93757813 105.65742187 -11 105 C-11.825 105.86625 -12.65 106.7325 -13.5 107.625 C-25.28256817 117.73118652 -44.1724179 120.10473254 -59 119 C-69.22380592 117.14901392 -79.63959272 112.41580607 -86 104 C-92.6235618 92.8517713 -93.33651281 81.77440417 -92 69 C-89.40279063 59.66538034 -83.80478827 53.31054331 -75.5 48.57421875 C-62.61726278 42.22647469 -49.13212082 41.43772939 -35.0625 40.875 C-32.57220828 40.76625364 -30.08212551 40.65407264 -27.59214783 40.5383606 C-26.05749451 40.46797608 -24.52263017 40.40199786 -22.98756409 40.34127808 C-18.91968256 40.16488168 -15.00031216 39.76132819 -11 39 C-11.97953244 29.16515183 -11.97953244 29.16515183 -17 21 C-26.54947236 15.08611356 -35.26996985 13.81354074 -46.1875 16.1875 C-54.72993274 18.52407508 -57.59819389 23.62912547 -61.86328125 30.98828125 C-62.23839844 31.65214844 -62.61351562 32.31601562 -63 33 C-71.38156489 32.61375277 -79.01265489 30.4744657 -87 28 C-86.84810477 18.73439084 -83.09973643 12.63554356 -77.02734375 5.76953125 C-56.64332357 -13.92867143 -23.26508133 -14.99038746 0 0 Z " fill="#0F8C83" transform="translate(397,475)"/>
<path d="M0 0 C13.3107851 10.32206798 22.19550321 25.02853063 24.36572266 41.82763672 C24.54856 45.07871318 24.59590096 48.32192278 24.61572266 51.57763672 C24.63634766 52.44001953 24.65697266 53.30240234 24.67822266 54.19091797 C24.68595703 55.42648437 24.68595703 55.42648437 24.69384766 56.68701172 C24.70319336 57.4343457 24.71253906 58.18167969 24.72216797 58.95166016 C24.54572754 59.88026855 24.54572754 59.88026855 24.36572266 60.82763672 C20.54259621 63.37638769 17.46669866 63.09435086 13.03881836 63.0546875 C11.76532028 63.05512558 11.76532028 63.05512558 10.46609497 63.05557251 C7.65779425 63.05417835 4.84975832 63.03861308 2.04150391 63.02294922 C0.09523158 63.0192194 -1.85104263 63.01637228 -3.7973175 63.01437378 C-8.92165301 63.00673491 -14.04587527 62.9870842 -19.17016602 62.96496582 C-24.39842192 62.94451289 -29.6266961 62.93537324 -34.85498047 62.92529297 C-45.11479587 62.90383858 -55.37452719 62.86969953 -65.63427734 62.82763672 C-65.00882018 64.91330957 -64.37909085 66.99770159 -63.74755859 69.08154297 C-63.39733643 70.24242432 -63.04711426 71.40330566 -62.6862793 72.59936523 C-60.38565268 79.65928302 -56.85022904 84.67946611 -50.63427734 88.82763672 C-41.22378121 93.5055816 -29.99763547 94.21555307 -19.85693359 91.64013672 C-12.75147801 89.04271183 -7.84417498 84.45749212 -3.53271484 78.36669922 C-0.60264614 75.99129373 1.68099077 76.52279851 5.36572266 76.82763672 C7.98048726 77.22103159 10.58607681 77.6805894 13.17822266 78.20263672 C13.8453125 78.32896484 14.51240234 78.45529297 15.19970703 78.58544922 C20.11565352 79.57756758 20.11565352 79.57756758 22.36572266 81.82763672 C22.36572266 89.46425958 16.65893848 95.6644693 11.67822266 100.95263672 C-2.32420251 114.24173079 -19.51057139 118.36542714 -38.27880859 118.10498047 C-55.06970044 117.51464126 -68.27616862 108.58275611 -79.56787109 96.81201172 C-83.46298426 92.26626718 -86.01665712 87.31497615 -88.44677734 81.89013672 C-88.73705811 81.24616943 -89.02733887 80.60220215 -89.32641602 79.9387207 C-95.70604754 64.89604278 -96.20374313 45.23720305 -90.88818359 29.82763672 C-84.1587509 13.72731176 -71.93318389 -0.4100466 -55.52099609 -7.17626953 C-36.28981145 -13.81219928 -16.88172125 -12.11025179 0 0 Z " fill="#108C83" transform="translate(757.63427734375,476.17236328125)"/>
<path d="M0 0 C1.01900391 0.00064453 2.03800781 0.00128906 3.08789062 0.00195312 C4.15072266 0.01806641 5.21355469 0.03417969 6.30859375 0.05078125 C7.90864258 0.04594727 7.90864258 0.04594727 9.54101562 0.04101562 C17.47912847 0.09631597 17.47912847 0.09631597 19.74609375 2.36328125 C19.93444302 5.34630254 19.99775214 8.23582379 19.97314453 11.21923828 C19.97343658 12.13636597 19.97372864 13.05349365 19.97402954 13.99841309 C19.97263268 17.03940184 19.95705476 20.08014763 19.94140625 23.12109375 C19.93767739 25.22573716 19.93482982 27.33038231 19.93283081 29.43502808 C19.92518439 34.98188039 19.90552725 40.52862842 19.88342285 46.07543945 C19.86298612 51.73257028 19.85383375 57.38971792 19.84375 63.046875 C19.82228231 74.15238964 19.78813423 85.25782678 19.74609375 96.36328125 C20.40609375 96.36328125 21.06609375 96.36328125 21.74609375 96.36328125 C21.99888092 95.7848497 22.25166809 95.20641815 22.51211548 94.61045837 C23.8951939 92.09175747 25.44775466 90.42792288 27.48974609 88.40844727 C28.64136734 87.26189415 28.64136734 87.26189415 29.81625366 86.09217834 C30.64646027 85.27543137 31.47666687 84.45868439 32.33203125 83.6171875 C33.18536041 82.76905991 34.03868958 81.92093231 34.9178772 81.04710388 C37.64758589 78.33521289 40.38387101 75.6300862 43.12109375 72.92578125 C45.85032166 70.22421118 48.57806963 67.52118902 51.30288696 64.81517029 C52.99850296 63.13176381 54.69678544 61.45103784 56.39804077 59.77333069 C57.17209259 59.00580978 57.94614441 58.23828888 58.74365234 57.44750977 C59.46093506 56.73710037 60.17821777 56.02669098 60.91723633 55.29475403 C62.9153158 53.28291723 62.9153158 53.28291723 64.83740234 50.33886719 C66.74609375 48.36328125 66.74609375 48.36328125 70.13769531 47.7956543 C72.11721191 47.83493042 72.11721191 47.83493042 74.13671875 47.875 C74.8413324 47.88207474 75.54594604 47.88914948 76.27191162 47.8964386 C78.51440266 47.92434768 80.75436246 47.98706838 82.99609375 48.05078125 C84.51949509 48.07586914 86.04293572 48.09868147 87.56640625 48.11914062 C91.29378624 48.17415912 95.01969281 48.26040321 98.74609375 48.36328125 C98.22260298 52.50322664 96.05205319 54.43174289 93.16625977 57.31542969 C92.69140137 57.79393875 92.21654297 58.27244781 91.72729492 58.76545715 C90.15883483 60.34201065 88.57979395 61.90746634 87 63.47265625 C85.9071173 64.56502033 84.81475256 65.65790285 83.72288513 66.75128174 C81.43509779 69.03897942 79.14223373 71.32142396 76.84545898 73.60009766 C73.8966401 76.52618942 70.95906511 79.4632682 68.02496433 82.40410995 C65.77176285 84.6606463 63.51361584 86.91217814 61.25382805 89.162117 C60.16839009 90.24369735 59.08430752 91.32663963 58.00158882 92.41094208 C56.4910368 93.9218634 54.97417761 95.42614302 53.45532227 96.92871094 C52.59229996 97.78712585 51.72927765 98.64554077 50.84010315 99.52996826 C48.74609375 101.36328125 48.74609375 101.36328125 46.74609375 101.36328125 C49.46963512 106.28133078 52.90949736 110.57994306 56.37109375 114.98828125 C57.00136475 115.79442871 57.63163574 116.60057617 58.28100586 117.43115234 C63.02067573 123.47758483 67.85362115 129.43995321 72.74609375 135.36328125 C92.96570597 160.00051172 92.96570597 160.00051172 99.74609375 170.36328125 C97.12057445 172.98880055 89.88126631 171.68124715 86.12792969 171.71337891 C84.71369932 171.72989878 83.29955109 171.75713722 81.88574219 171.79541016 C79.84396181 171.85039956 77.80414156 171.8720857 75.76171875 171.88671875 C73.92528809 171.91644775 73.92528809 171.91644775 72.05175781 171.94677734 C67.81111995 171.19824525 66.46953551 169.62057444 63.74609375 166.36328125 C63.22257324 165.76459229 62.69905273 165.16590332 62.15966797 164.54907227 C61.71123535 163.99405029 61.26280273 163.43902832 60.80078125 162.8671875 C60.28692871 162.23337158 59.77307617 161.59955566 59.24365234 160.9465332 C58.70820801 160.27968506 58.17276367 159.61283691 57.62109375 158.92578125 C57.05342285 158.22348389 56.48575195 157.52118652 55.90087891 156.79760742 C51.80928535 151.72282028 47.78667304 146.59630072 43.77978516 141.45458984 C40.17048161 136.84716441 36.41667926 132.37614694 32.60913086 127.93188477 C29.29077169 124.04790304 26.14100413 120.06599736 23.0859375 115.97265625 C21.8198184 114.23295341 21.8198184 114.23295341 19.74609375 113.36328125 C19.74831436 114.0626329 19.75053497 114.76198456 19.75282288 115.48252869 C19.77282655 122.06033046 19.78806827 128.63812379 19.79790592 135.21594906 C19.8031335 138.59799938 19.81022886 141.98002465 19.8215332 145.36206055 C19.83443642 149.24657902 19.83932299 153.13108722 19.84375 157.015625 C19.84891129 158.23539536 19.85407257 159.45516571 19.85939026 160.7118988 C19.85950356 162.39352867 19.85950356 162.39352867 19.85961914 164.10913086 C19.86183975 165.10174423 19.86406036 166.0943576 19.86634827 167.11705017 C19.74609375 169.36328125 19.74609375 169.36328125 18.74609375 170.36328125 C16.89239764 170.4506577 15.03541834 170.47026278 13.1796875 170.4609375 C12.05498047 170.45771484 10.93027344 170.45449219 9.77148438 170.45117188 C8.58748047 170.44279297 7.40347656 170.43441406 6.18359375 170.42578125 C4.99572266 170.42126953 3.80785156 170.41675781 2.58398438 170.41210938 C-0.36202851 170.400278 -3.30794306 170.38379412 -6.25390625 170.36328125 C-7.94479123 165.93858762 -8.50636419 162.27661323 -8.51460266 157.54975891 C-8.51842821 156.88929713 -8.52225376 156.22883535 -8.52619523 155.54835957 C-8.53646321 153.34897045 -8.53254511 151.14984542 -8.52856445 148.95043945 C-8.53291418 147.36823283 -8.53809821 145.78602831 -8.54405212 144.2038269 C-8.55742046 139.91690359 -8.55802356 135.63006854 -8.55548882 131.34312844 C-8.55441835 127.76423026 -8.55930406 124.18534987 -8.56409425 120.6064555 C-8.5751804 112.16722953 -8.57563085 103.72804809 -8.56958008 95.28881836 C-8.56353036 86.577271 -8.57587859 77.86588475 -8.59715015 69.15436488 C-8.61474306 61.67484294 -8.62077145 54.19537239 -8.6175124 46.7158305 C-8.61569683 42.24838354 -8.61836357 37.78105169 -8.63222694 33.31362343 C-8.64476434 29.11682226 -8.64290028 24.92027352 -8.62981606 20.72347641 C-8.62744234 19.18151325 -8.63021328 17.63953254 -8.63843918 16.09758949 C-8.64884112 13.99671416 -8.64086034 11.89669641 -8.62812805 9.79585266 C-8.62829579 8.61914159 -8.62846354 7.44243052 -8.62863636 6.23006153 C-8.25390625 3.36328125 -8.25390625 3.36328125 -6.88177776 1.48451519 C-4.55534381 -0.11786969 -2.80546109 -0.00894306 0 0 Z " fill="#118D84" transform="translate(563.25390625,419.63671875)"/>
<path d="M0 0 C13.8074689 -0.72670889 29.743624 3.62341477 40.54296875 12.2265625 C46.16686424 17.45401946 51.31742588 23.74511988 52.28515625 31.6015625 C52.30078125 33.81640625 52.30078125 33.81640625 51.98828125 37.19140625 C45.66383912 38.79011261 39.33953822 40.2966162 32.86328125 41.12890625 C31.99445313 41.24105469 31.125625 41.35320312 30.23046875 41.46875 C27.98828125 41.19140625 27.98828125 41.19140625 26.28515625 39.4140625 C24.98828125 37.19140625 24.98828125 37.19140625 23.36328125 33.69140625 C20.36651608 28.25758303 14.54708796 27.04434182 8.98828125 25.19140625 C0.31353465 24.3397481 -6.79822416 24.99710487 -14.01171875 30.19140625 C-16.49354937 33.91415218 -16.63729373 36.88001114 -16.01171875 41.19140625 C-14.11266614 45.369322 -11.38073674 46.68504498 -7.26171875 48.25390625 C-0.98747436 50.18088548 5.38673125 51.12363131 11.86328125 52.12890625 C27.03138516 54.4996506 40.78613322 57.80129267 50.734375 70.37890625 C56.19708946 78.27516641 56.10477017 87.93457918 54.98828125 97.19140625 C52.06308612 109.28492132 44.31327411 116.34577515 34.00390625 122.65234375 C28.89358845 125.26045931 23.52999286 126.7774716 17.98828125 128.19140625 C17.35913818 128.36720215 16.72999512 128.54299805 16.08178711 128.72412109 C-0.41653733 132.40666255 -17.03735578 127.90196762 -31.01171875 119.19140625 C-38.10414762 114.36497 -43.25867183 107.32426047 -46.01171875 99.19140625 C-46.3125 96.8046875 -46.3125 96.8046875 -46.32421875 94.50390625 C-46.34097656 93.73691406 -46.35773438 92.96992187 -46.375 92.1796875 C-46.25511719 91.52355469 -46.13523437 90.86742187 -46.01171875 90.19140625 C-39.4314254 85.80454402 -28.78238911 85.3140725 -21.01171875 86.19140625 C-19.13671875 88.31640625 -19.13671875 88.31640625 -18.01171875 91.19140625 C-14.95461296 98.0004146 -11.62799312 100.69873241 -4.76171875 103.44140625 C4.078725 106.43555922 11.36074713 105.63363124 19.98828125 102.19140625 C22.99305609 100.68592112 25.34598216 99.06726865 27.36328125 96.31640625 C28.46190931 92.58107085 28.16986705 89.30686188 27.55078125 85.50390625 C24.98441688 81.70568698 21.29304471 81.26144745 16.98828125 80.19140625 C15.54195313 79.82402344 15.54195313 79.82402344 14.06640625 79.44921875 C8.69867275 78.15401937 3.31087125 77.04818413 -2.12158203 76.06762695 C-17.25272833 73.32766262 -31.14902648 69.53097192 -40.7421875 56.46484375 C-45.41134918 48.10345268 -45.23562601 37.45879711 -43.4296875 28.2109375 C-40.1020509 18.65347896 -32.41613867 11.23474384 -23.69140625 6.4375 C-16.00866844 2.86491492 -8.41011378 0.80018558 0 0 Z " fill="#0F8C83" transform="translate(481.01171875,464.80859375)"/>
<path d="M0 0 C1.89404297 1.8034668 1.89404297 1.8034668 2.39575195 4.22363281 C2.39389893 5.15876709 2.3920459 6.09390137 2.39013672 7.05737305 C2.39078125 8.07637695 2.39142578 9.09538086 2.39208984 10.14526367 C2.37210938 11.2080957 2.35212891 12.27092773 2.33154297 13.3659668 C2.33863281 14.43266602 2.34572266 15.49936523 2.35302734 16.59838867 C2.30463998 22.47559264 2.30463998 22.47559264 1.89404297 24.8034668 C-1.74016212 27.22627019 -4.53050924 27.0840314 -8.73095703 27.1784668 C-18.25499546 27.59246264 -25.18784083 29.88535059 -32.10595703 36.8034668 C-39.10539675 45.84440976 -39.39625708 55.0953469 -39.41091728 66.15093422 C-39.41461222 68.39150229 -39.43141787 70.63164002 -39.45167542 72.87211609 C-39.50682488 79.23595201 -39.53788185 85.59984648 -39.56225586 91.96386719 C-39.57811134 95.87006009 -39.60829157 99.77593725 -39.64702034 103.68196678 C-39.65867029 105.16710251 -39.66460069 106.65229455 -39.66470146 108.13747597 C-39.6648931 110.20787382 -39.68312218 112.27739444 -39.70532227 114.34765625 C-39.71292824 116.11348808 -39.71292824 116.11348808 -39.72068787 117.91499329 C-40.10595703 120.8034668 -40.10595703 120.8034668 -41.47973633 122.6836853 C-43.80510881 124.28488806 -45.55600505 124.17568599 -48.35986328 124.16674805 C-49.37886719 124.16610352 -50.39787109 124.16545898 -51.44775391 124.16479492 C-52.51058594 124.14868164 -53.57341797 124.13256836 -54.66845703 124.1159668 C-55.73515625 124.11918945 -56.80185547 124.12241211 -57.90087891 124.12573242 C-65.83899175 124.07043208 -65.83899175 124.07043208 -68.10595703 121.8034668 C-68.35763931 119.70449066 -68.35763931 119.70449066 -68.35992432 117.05871582 C-68.36556396 116.05757248 -68.37120361 115.05642914 -68.37701416 114.02494812 C-68.3729657 112.92254288 -68.36891724 111.82013763 -68.36474609 110.68432617 C-68.36825073 109.52657181 -68.37175537 108.36881744 -68.37536621 107.17597961 C-68.38419886 103.33299843 -68.37832888 99.49019999 -68.37158203 95.6472168 C-68.37292824 92.98685474 -68.37486506 90.32649834 -68.37738037 87.6661377 C-68.38102162 82.08412683 -68.37621677 76.50216885 -68.36669922 70.92016602 C-68.35581433 64.46153765 -68.3593398 58.00303554 -68.37035203 51.54441023 C-68.3794204 46.00467073 -68.3807124 40.4649693 -68.37547469 34.92522478 C-68.37235249 31.61416222 -68.37273468 28.30317221 -68.37854767 24.99211121 C-68.38360347 21.30218866 -68.3759158 17.61251159 -68.36474609 13.92260742 C-68.36879456 12.82020218 -68.37284302 11.71779694 -68.37701416 10.58198547 C-68.37137451 9.58084213 -68.36573486 8.57969879 -68.35992432 7.54821777 C-68.35917027 6.67511208 -68.35841621 5.80200638 -68.35763931 4.90244293 C-68.10595703 2.8034668 -68.10595703 2.8034668 -66.10595703 0.8034668 C-63.61572266 0.54467773 -63.61572266 0.54467773 -60.51220703 0.5378418 C-59.39974609 0.53526367 -58.28728516 0.53268555 -57.14111328 0.5300293 C-55.97451172 0.53776367 -54.80791016 0.54549805 -53.60595703 0.5534668 C-52.43935547 0.54573242 -51.27275391 0.53799805 -50.07080078 0.5300293 C-48.95833984 0.53260742 -47.84587891 0.53518555 -46.69970703 0.5378418 C-45.67554688 0.54009766 -44.65138672 0.54235352 -43.59619141 0.54467773 C-41.10595703 0.8034668 -41.10595703 0.8034668 -39.10595703 2.8034668 C-38.69189453 5.4050293 -38.69189453 5.4050293 -38.48095703 8.4284668 C-38.40619141 9.43135742 -38.33142578 10.43424805 -38.25439453 11.4675293 C-38.18091797 12.62381836 -38.18091797 12.62381836 -38.10595703 13.8034668 C-37.48720703 12.9372168 -36.86845703 12.0709668 -36.23095703 11.1784668 C-29.08140373 2.6833515 -10.78957196 -6.13026805 0 0 Z " fill="#0F8C83" transform="translate(870.10595703125,467.196533203125)"/>
<path d="M0 0 C4.69486109 0.32696354 7.51928298 2.6586405 11 5.5625 C12.23551907 6.56300369 13.47260199 7.56157813 14.7109375 8.55859375 C15.38866211 9.10628418 16.06638672 9.65397461 16.76464844 10.21826172 C20.99669792 13.59151392 25.3150678 16.85226843 29.625 20.125 C30.53805908 20.81972412 31.45111816 21.51444824 32.3918457 22.23022461 C36.97585138 25.71499809 41.57096867 29.18346899 46.1875 32.625 C51.99770154 36.96184098 57.6996647 41.43422563 63.41186523 45.89868164 C67.64135731 49.19508505 71.89893906 52.4283115 76.25 55.5625 C77.51070312 56.47515625 77.51070312 56.47515625 78.796875 57.40625 C80.15767941 58.3906617 81.52163739 59.37075054 82.890625 60.34375 C86.76112737 63.27481005 88.81119396 66.34821362 90 71 C90.38170593 75.61093426 90.32815416 80.18919302 90.25 84.8125 C90.24484375 86.05193359 90.2396875 87.29136719 90.234375 88.56835938 C90.15466058 97.69067885 90.15466058 97.69067885 89 100 C81.76139794 99.87283537 77.73290253 96.23075139 72.25 91.8125 C70.38134913 90.34620125 68.51153258 88.88138699 66.640625 87.41796875 C65.70025391 86.67724121 64.75988281 85.93651367 63.79101562 85.17333984 C59.59098998 81.90281602 55.30050565 78.76149513 51 75.625 C44.80285316 71.08273724 38.66487224 66.4832514 32.59375 61.7734375 C29.67092623 59.50910873 26.7279576 57.27221288 23.78125 55.0390625 C22.84974121 54.33249512 21.91823242 53.62592773 20.95849609 52.89794922 C19.11371046 51.49949807 17.26774129 50.10260639 15.42041016 48.70751953 C11.56625183 45.78270191 7.72692158 42.84219664 3.9921875 39.765625 C3.18950439 39.10481934 3.18950439 39.10481934 2.37060547 38.43066406 C-1.34791817 34.54919835 -1.24685522 30.88209831 -1.23046875 25.64453125 C-1.23001053 24.94228928 -1.22955231 24.2400473 -1.2290802 23.51652527 C-1.22606789 22.03809918 -1.21821223 20.55967597 -1.20581055 19.08129883 C-1.18747938 16.80994534 -1.1853015 14.53899809 -1.18554688 12.26757812 C-1.14752629 1.14752629 -1.14752629 1.14752629 0 0 Z " fill="#118D84" transform="translate(139,540)"/>
<path d="M0 0 C4.05518449 -0.30696968 5.96510053 0.25861896 9.1875 2.7109375 C9.9614209 3.29085449 10.7353418 3.87077148 11.53271484 4.46826172 C12.34691895 5.09748535 13.16112305 5.72670898 14 6.375 C14.85158691 7.01840332 15.70317383 7.66180664 16.58056641 8.32470703 C19.06297584 10.20469467 21.53298079 12.09988364 24 14 C25.1324666 14.86503635 26.26522828 15.72968671 27.3984375 16.59375 C29.41677346 18.14061116 31.43097639 19.69287725 33.44140625 21.25 C38.04635556 24.81616784 42.6800254 28.34470925 47.3125 31.875 C48.21661621 32.56400391 49.12073242 33.25300781 50.05224609 33.96289062 C54.85980166 37.62233454 59.67637382 41.26895247 64.51391602 44.88867188 C65.82170864 45.86738626 67.12822205 46.84781266 68.43334961 47.83007812 C71.53722951 50.16571863 74.65415758 52.47759305 77.8046875 54.75 C78.99490698 55.62484314 80.18501657 56.49983581 81.375 57.375 C82.41398437 58.12523437 83.45296875 58.87546875 84.5234375 59.6484375 C88.09677932 63.04142137 88.86830148 66.36147165 89.25878906 71.21972656 C89.26217285 72.91307129 89.26217285 72.91307129 89.265625 74.640625 C89.26949219 76.49300781 89.26949219 76.49300781 89.2734375 78.3828125 C89.26570313 79.65898438 89.25796875 80.93515625 89.25 82.25 C89.26160156 84.18746094 89.26160156 84.18746094 89.2734375 86.1640625 C89.27085937 87.39382813 89.26828125 88.62359375 89.265625 89.890625 C89.26336914 91.01500977 89.26111328 92.13939453 89.25878906 93.29785156 C89 96 89 96 87 98 C81.80002115 97.93405824 78.36565226 94.52757691 74.5 91.4375 C72.97694094 90.24691155 71.45348532 89.05683028 69.9296875 87.8671875 C69.12756836 87.23651367 68.32544922 86.60583984 67.49902344 85.95605469 C63.23690243 82.61997482 58.93096919 79.34166727 54.625 76.0625 C53.29662109 75.04917603 53.29662109 75.04917603 51.94140625 74.01538086 C46.16799943 69.62072157 40.35185919 65.28948151 34.5 61 C27.50142983 55.86524396 20.54437255 50.67857706 13.625 45.4375 C12.73876953 44.77041016 11.85253906 44.10332031 10.93945312 43.41601562 C-0.40213198 34.79360406 -0.40213198 34.79360406 -2 30 C-2.23419897 25.87888542 -2.1851762 21.7520629 -2.1875 17.625 C-2.19974609 16.48804688 -2.21199219 15.35109375 -2.22460938 14.1796875 C-2.22654297 13.08140625 -2.22847656 11.983125 -2.23046875 10.8515625 C-2.23457764 9.84947754 -2.23868652 8.84739258 -2.24291992 7.81494141 C-1.98780979 4.8587406 -1.23817286 2.68122544 0 0 Z " fill="#108D84" transform="translate(139,486)"/>
<path d="M0 0 C4.12494151 -0.05784708 8.24977944 -0.09354407 12.375 -0.125 C13.550625 -0.14175781 14.72625 -0.15851563 15.9375 -0.17578125 C17.61972656 -0.18544922 17.61972656 -0.18544922 19.3359375 -0.1953125 C20.37282715 -0.20578613 21.4097168 -0.21625977 22.47802734 -0.22705078 C25 0 25 0 27 2 C27.25168228 4.06494808 27.25168228 4.06494808 27.25396729 6.66209412 C27.25960693 7.64496399 27.26524658 8.62783386 27.27105713 9.64048767 C27.26700867 10.72262039 27.26296021 11.80475311 27.25878906 12.91967773 C27.2622937 14.05631866 27.26579834 15.19295959 27.26940918 16.36404419 C27.27824221 20.13728873 27.27237133 23.91034716 27.265625 27.68359375 C27.26697129 30.29671769 27.26891152 32.90984139 27.27142334 35.52296448 C27.27506478 41.00662263 27.27025978 46.49022697 27.26074219 51.97387695 C27.24986268 58.31547057 27.25337877 64.65693555 27.264395 70.99852604 C27.27456205 77.09501824 27.27348888 83.19145337 27.26763153 89.28795052 C27.2662944 91.88397299 27.26794497 94.47999872 27.27259064 97.07601738 C27.2776531 100.70107673 27.26994905 104.325887 27.25878906 107.95092773 C27.26283752 109.03103622 27.26688599 110.11114471 27.27105713 111.22398376 C27.26541748 112.20967346 27.25977783 113.19536316 27.25396729 114.21092224 C27.25321323 115.06835746 27.25245918 115.92579268 27.25168228 116.80921078 C27 119 27 119 25 122 C22.47802734 122.34057617 22.47802734 122.34057617 19.3359375 122.29296875 C18.21445312 122.28330078 17.09296875 122.27363281 15.9375 122.26367188 C14.1740625 122.2259668 14.1740625 122.2259668 12.375 122.1875 C10.59996094 122.16719727 10.59996094 122.16719727 8.7890625 122.14648438 C5.85892461 122.11103916 2.92968541 122.06162769 0 122 C-1.21718711 119.56562578 -1.12579863 118.01424998 -1.12698364 115.29321289 C-1.12980347 114.3004837 -1.13262329 113.30775452 -1.13552856 112.28494263 C-1.13350433 111.19188812 -1.1314801 110.09883362 -1.12939453 108.97265625 C-1.13114685 107.82465546 -1.13289917 106.67665466 -1.13470459 105.49386597 C-1.13912078 101.68339545 -1.13618591 97.87297102 -1.1328125 94.0625 C-1.13348561 91.42456046 -1.13445569 88.78662097 -1.13571167 86.14868164 C-1.13753228 80.61376441 -1.1351299 75.07886052 -1.13037109 69.54394531 C-1.12492868 63.13988076 -1.12669141 56.73584803 -1.1321975 50.33178425 C-1.13727745 44.17763661 -1.1367459 38.02350311 -1.13381577 31.86935425 C-1.13314673 29.24738562 -1.13397409 26.62541618 -1.13629532 24.00344849 C-1.13882323 20.34472473 -1.13497923 16.68606287 -1.12939453 13.02734375 C-1.13141876 11.93428925 -1.13344299 10.84123474 -1.13552856 9.71505737 C-1.13270874 8.72232819 -1.12988892 7.729599 -1.12698364 6.70678711 C-1.12660662 5.84105576 -1.12622959 4.9753244 -1.12584114 4.08335876 C-1 2 -1 2 0 0 Z " fill="#128C83" transform="translate(892,468)"/>
<path d="M0 0 C0.51112447 9.20024052 -1.08721822 16.20974414 -7.125 23.375 C-11.33260383 27.72581239 -15.24003752 30.23086867 -21 32 C-21.680625 32.22171875 -22.36125 32.4434375 -23.0625 32.671875 C-32.3436294 35.35470147 -40.26649193 33.96743434 -49 30 C-51.625 27.5625 -51.625 27.5625 -53 25 C-53.4125 24.236875 -53.825 23.47375 -54.25 22.6875 C-55.43101404 18.45553303 -55.80034416 14.11179919 -54.2109375 9.91796875 C-52.82106974 7.71659756 -51.58242885 6.73815327 -49.375 5.375 C-48.74335938 4.97023438 -48.11171875 4.56546875 -47.4609375 4.1484375 C-39.80676054 0.57648825 -31.92589656 0.59344465 -23.625 0.375 C-21.87316406 0.31699219 -21.87316406 0.31699219 -20.0859375 0.2578125 C-13.38896759 0.04759371 -6.70005848 -0.05170094 0 0 Z " fill="#FAFBFB" transform="translate(387,537)"/>
<path d="M0 0 C11.01963818 6.13266821 14.71629514 15.48400464 18.24609375 27.25 C-2.54390625 27.25 -23.33390625 27.25 -44.75390625 27.25 C-40.85852865 12.96694878 -36.11612217 5.65127842 -23.50390625 -1.625 C-15.41336521 -4.05216231 -7.66861299 -3.53369687 0 0 Z " fill="#FBFCFC" transform="translate(736.75390625,490.75)"/>
<path d="M0 0 C4.51084952 2.54458178 7.16617589 5.00478331 8.7578125 10.078125 C9.31390637 15.91711068 8.75722462 19.879144 5.7578125 25.078125 C-0.31060333 29.88228753 -5.67985131 30.91576286 -13.2421875 30.078125 C-18.07982275 27.74889321 -20.87838413 24.89664725 -23.2421875 20.078125 C-24.18754854 14.79182041 -23.62249506 10.15848269 -20.62890625 5.65234375 C-15.14091436 -0.57768648 -7.88082325 -3.24019911 0 0 Z " fill="#0F8B82" transform="translate(911.2421875,421.921875)"/>
<path d="M0 0 C1.32 1.32 2.64 2.64 4 4 C3 5 3 5 0.13256836 5.11352539 C-1.11903076 5.10828857 -2.37062988 5.10305176 -3.66015625 5.09765625 C-4.65685585 5.09553383 -4.65685585 5.09553383 -5.6736908 5.09336853 C-7.80333899 5.08775518 -9.93288339 5.07520054 -12.0625 5.0625 C-13.50325369 5.05748671 -14.94400903 5.05292351 -16.38476562 5.04882812 C-19.92321102 5.03778145 -23.46159539 5.02050792 -27 5 C-27.33 4.34 -27.66 3.68 -28 3 C-18.76 2.67 -9.52 2.34 0 2 C0 1.34 0 0.68 0 0 Z " fill="#278E85" transform="translate(659,586)"/>
<path d="M0 0 C0.66 0.33 1.32 0.66 2 1 C0.23519919 2.8187336 -1.53630765 4.62994991 -3.3125 6.4375 C-4.06176758 7.2119043 -4.06176758 7.2119043 -4.82617188 8.00195312 C-7.19869635 10.40590176 -8.74970379 11.91656793 -12 13 C-10.61536056 9.87250593 -9.00477577 7.7595015 -6.5625 5.375 C-5.96566406 4.78460938 -5.36882813 4.19421875 -4.75390625 3.5859375 C-3 2 -3 2 0 0 Z " fill="#098178" transform="translate(689,477)"/>
</svg>
